<?xml version="1.0" encoding="UTF-8"?>
<svg id="katman_1" xmlns="http://www.w3.org/2000/svg" version="1.1" viewBox="0 0 566.9 566.9">
  <!-- Generator: Adobe Illustrator 29.8.3, SVG Export Plug-In . SVG Version: 2.1.1 Build 3)  -->
  <defs>
    <style>
      .st0, .st1 {
        fill: #fff;
      }

      .st1 {
        fill-rule: evenodd;
      }
    </style>
  </defs>
  <path class="st1" d="M194.1,156.8c-43.3,2.7-70.2,47.1-49.9,85.7,19.1,36.2,77.3,38.8,94.7,75.2,13.7,28.7-2.2,63.5-39.5,66.5-2.3,2.5-2.1,4.4,2.9,5.1,61.1-9.8,79.1-54.3,65.5-89.5-12.3-31.5-54.4-44.9-82.8-60.3-43.3-23.4-38-73.3,9.6-78.3-.2-1.5-.3-3-.5-4.5"/>
  <path class="st1" d="M376.1,156.9h55.1c1.5,0,2.8,1.3,2.8,2.8s-1.3,2.8-2.8,2.8h-24.7v160.4c-3,40.3-30.1,63.3-63.6,65.9-10.3.8-10.6-4.1.2-5.9,32.6-5.7,55.4-22.9,57.9-61.3v-159.1h-24.7c-1.5,0-2.8-1.3-2.8-2.8s1.3-2.8,2.8-2.8M225.3,156.9h100.5c1.5,0,2.8,1.3,2.8,2.8s-1.3,2.8-2.8,2.8h-33.4v103c-9.1-12.4-20.2-23-34.5-30.7v-72.3c.1,0-32.6,0-32.6,0-1.5,0-2.8-1.3-2.8-2.8s1.3-2.8,2.8-2.8h0Z"/>
  <path class="st0" d="M283.4,7.6l-.7,26c0,.9.3,1.6,1,2.1s1.6.7,2.7.8c1.1,0,2-.2,2.8-.6.7-.4,1.1-1.1,1.1-2.1l.7-26c0-.5.1-.9.4-1.1.2-.2.6-.4,1.1-.3h5.4c.9.2,1.4.7,1.4,1.7l-.7,26.9c0,1.1-.3,2.2-.8,3.2s-1.2,1.9-2.2,2.7-2.2,1.4-3.8,1.8-3.4.6-5.5.5c-2.6,0-4.8-.5-6.5-1.3s-3.1-1.8-4-3.1-1.3-2.8-1.3-4.6l.7-26.9c0-1,.5-1.5,1.5-1.5h5.4c.5.2.9.3,1.1.6.2.3.3.6.3,1.1h-.1Z"/>
  <path class="st0" d="M315.6,9.3l-3.5,28.1,8.4,1.1c1,0,1.4.7,1.3,1.6l-.5,3.9c-.1,1-.7,1.4-1.7,1.3l-15.4-1.9c-.9,0-1.2-.7-1.1-1.7l4.2-33.4c.1-1,.7-1.4,1.6-1.3l5.3.7c.5,0,.9.2,1,.5.2.3.2.7.2,1.2h.2Z"/>
  <path class="st0" d="M340.4,12.9l-5.9,25.3c-.2.9,0,1.7.5,2.3.6.6,1.4,1,2.5,1.3s2,.2,2.8,0c.8-.3,1.3-.9,1.5-1.8l5.9-25.3c.1-.5.3-.8.6-1,.3-.2.7-.2,1.2-.1l5.3,1.2c.9.2,1.3.8,1,1.8l-6.1,26.2c-.3,1.1-.7,2.1-1.4,3-.7.9-1.6,1.6-2.7,2.2-1.1.6-2.5.9-4.1,1s-3.5,0-5.5-.6c-2.6-.6-4.6-1.4-6.2-2.5s-2.6-2.4-3.3-3.8c-.6-1.5-.7-3.1-.3-4.8l6.1-26.2c.2-1,.8-1.4,1.8-1.1l5.3,1.2c.5.1.9.3,1,.6s.1.7,0,1.2h0Z"/>
  <path class="st0" d="M237.1,9.9l19.3-2.4c1,0,1.6.3,1.7,1.2l.5,3.9c.1,1-.3,1.5-1.3,1.6l-5.5.7,3.5,28.1c.1,1-.3,1.6-1.2,1.7l-5.3.7c-.5,0-.9,0-1.2-.2-.2-.2-.4-.6-.5-1.1l-3.5-28.1-5.6.7c-1,.1-1.6-.3-1.7-1.3l-.5-3.9c-.1-.9.3-1.5,1.3-1.6h0Z"/>
  <path class="st0" d="M363.3,17.2l18.4,6.2c1,.3,1.3.9,1,1.8l-1.3,3.7c-.3.9-.9,1.2-1.9.9l-5.3-1.8-9.1,26.9c-.3,1-.9,1.3-1.8,1l-5.1-1.7c-.5-.2-.8-.4-1-.7s-.1-.7,0-1.2l9.1-26.9-5.3-1.8c-1-.3-1.3-.9-1-1.9l1.3-3.7c.3-.9.9-1.2,1.9-.8h0Z"/>
  <path class="st0" d="M236.6,47.2l-15.8,3.6c-.9.2-1.5-.2-1.8-1.1l-7.6-32.8c-.2-1,.1-1.6,1.1-1.8l15.4-3.6c1-.2,1.6.1,1.8,1l.9,3.8c.2.9-.2,1.5-1.1,1.8l-8.8,2,1.7,7.5,8-1.9h.9c.4,0,.7.4.9,1.1l.8,3.6c.2.9-.2,1.5-1.1,1.8l-8,1.9,2,8.6,9.2-2.1c1-.2,1.6,0,1.8,1l.9,3.8c.1.5,0,.9-.1,1.2-.2.3-.5.5-1,.6h0Z"/>
  <path class="st0" d="M394.6,28.6l5,2.3c.9.4,1.2,1.1,1.1,2.1l-6.2,34.1c-.2,1-.7,1.3-1.6.9l-5-2.2c-.9-.4-1.2-1.1-1-2.1l1.2-5.7-6.6-3-3.5,4.7c-.6.8-1.4,1-2.2.6l-4.5-2c-1-.4-1.1-1-.4-1.8l21.4-27.2c.6-.8,1.4-1,2.3-.6h0ZM389.4,51.4l.9-3.6c.5-2.2,1.4-5.4,2.7-9.4-2.4,3.9-4.1,6.6-5.3,8.2l-2.2,3,3.9,1.7h0Z"/>
  <path class="st0" d="M186.5,24.2l15.9-5.5c1-.3,1.6,0,1.9.8l1.3,3.7c.3.9,0,1.5-1,1.9l-9.5,3.3,2.5,7.3,8.8-3c.2,0,.5,0,.9,0s.8.3,1,1l1.3,3.7c.3,1,0,1.6-.9,1.9l-8.8,3,4.5,13.1c0,.2.1.5.1.9s-.3.7-1,1l-5.1,1.7c-.9.3-1.5,0-1.9-1l-10.9-31.8c-.3-1,0-1.6.9-1.9Z"/>
  <path class="st0" d="M402.2,85.8l-4.8-2.8c-.4-.3-.7-.5-.8-.8-.1-.3,0-.7.2-1.2l.6-1c.3-.5.6-.7.9-.8.3,0,.7,0,1.1.3l3.7,2.1c.2,0,.3,0,.5,0,.2,0,.3-.2.4-.3,0-.2.1-.3,0-.5,0-.2-.1-.3-.3-.4l-3.1-1.8c-.5-.3-.9-.7-1.1-1.1s0-.9.6-1.5l2.8-2.8c-1.6-1.2-2.9-2.5-3.8-4s-1.2-2.9-1.1-4.3c0-1.4.5-2.7,1.1-3.8l1.9-3.4c.5-.9,1.2-1.1,2-.6l4.5,2.6c.8.5,1,1.2.4,2.1l-1.6,2.8c-.5.8-.5,1.6-.1,2.3.4.7,1,1.4,2,1.9,1,.6,1.9.8,2.7.8s1.5-.5,1.9-1.3l1-1.7c.3-.5.4-1.2.3-1.9-.1-.7-.6-1.7-1.5-3l-4.5-6.6c-.8-1.1-1.2-2.5-1.2-3.9s.2-2.8.9-4.1l1.8-3.1c1.4-2.5,3.4-3.9,5.8-4.1,2.5-.3,5.2.5,8.4,2.3,2.2,1.3,3.9,2.7,5,4.1,1.1,1.5,1.7,2.9,1.8,4.5,0,1.5-.3,3.1-1.2,4.6l-1.2,2.1c-.3.4-.5.7-.8.8s-.7,0-1.2-.2l-4.5-2.6c-.5-.3-.7-.6-.8-.9,0-.3,0-.7.3-1.1l.9-1.6c.4-.8.5-1.5.2-2.2s-.9-1.3-1.8-1.8-1.7-.7-2.5-.7-1.4.5-1.8,1.3l-.7,1.2c-.3.6-.5,1.2-.4,1.7,0,.5.2,1,.5,1.3l5.2,7.2c.8,1.1,1.3,2.2,1.6,3.3.3,1.1.4,2.2.2,3.3-.2,1-.5,1.9-.9,2.7l-2.2,3.8c-.5.8-1.1,1.6-1.8,2.2-.8.7-1.7,1.2-2.7,1.5s-2.2.4-3.5.3-2.7-.5-4.3-1.2l-1.4,1.4.9.5c1.2.7,2,1.6,2.4,2.7.3,1.1.1,2.2-.6,3.5-.8,1.3-1.7,2.1-2.8,2.4-1.1.3-2.3,0-3.6-.7v.2Z"/>
  <path class="st0" d="M160.6,35.5l15.3-6.9c.9-.4,1.6-.2,2,.7l1.6,3.6c.4.9.1,1.5-.8,1.9l-9.1,4.1,3.2,7,8.5-3.8c.2,0,.5,0,.9-.2.4,0,.8.2,1.1.9l1.6,3.5c.4.9.2,1.6-.8,2l-8.5,3.8,5.7,12.6c0,.2.2.5.2.9s-.2.8-.9,1l-4.9,2.2c-.9.4-1.5,0-1.9-.8l-13.9-30.6c-.4-.9-.2-1.6.7-2h0Z"/>
  <path class="st0" d="M140.1,47.5l4.8-2.7c.8-.5,1.6-.4,2.3.4l24.1,24.9c.8.7.7,1.3-.2,1.8l-4.7,2.7c-.8.5-1.6.3-2.3-.4l-3.9-4.3-6.3,3.6,1.8,5.6c.3,1,0,1.7-.8,2.2l-4.3,2.5c-.9.5-1.5.3-1.7-.7l-9.6-33.3c-.3-1,0-1.7.9-2.3h-.1ZM155.6,65.1l-2.4-2.8c-1.5-1.7-3.5-4.3-6-7.7,1.8,4.2,3,7.2,3.6,9.1l1.2,3.6,3.7-2.1h-.1Z"/>
  <path class="st0" d="M460.6,68.7l-33.1,28.3c-.8.7-1.5.7-2.3,0l-4.3-3.3c-.3-.3-.5-.6-.6-.9,0-.3.2-.7.5-1l33.1-28.3c.8-.7,1.5-.7,2.3,0l4.3,3.3c.8.6.8,1.2,0,1.9h.1Z"/>
  <path class="st0" d="M125.8,69.6l-1.1-1.4c-.6-.7-1.2-1-2-1s-1.5.4-2.4,1c-.8.6-1.3,1.3-1.5,2.1-.2.7,0,1.4.5,2.2l.9,1.1c.4.5.9.9,1.4,1,.5.2,1,.2,1.4,0l8.7-2.2c1.3-.3,2.5-.4,3.7-.3s2.2.5,3.1,1c.9.6,1.6,1.2,2.1,1.9l2.7,3.4c.9,1.2,1.5,2.4,1.7,3.6s.1,2.4-.2,3.5-.9,2.2-1.7,3.4-2,2.4-3.7,3.7c-2.1,1.6-4,2.7-5.8,3.2s-3.5.5-5,0c-1.5-.4-2.8-1.4-3.9-2.8l-2.4-3.1c-.6-.8-.6-1.5.2-2.1l4.1-3.2c.7-.6,1.4-.5,2.1.4l2,2.5c.6.7,1.3,1.1,2.1,1,.8,0,1.7-.4,2.5-1.1.9-.7,1.5-1.4,1.7-2.2.3-.8.1-1.5-.5-2.3l-1.2-1.6c-.4-.5-.9-.8-1.6-.9-.7,0-1.8,0-3.4.3l-7.8,1.7c-1.3.3-2.7.2-4.1-.3s-2.6-1.3-3.4-2.4l-2.2-2.8c-1.8-2.3-2.3-4.6-1.7-7,.7-2.4,2.4-4.7,5.2-6.9,2-1.6,3.9-2.6,5.7-3.1,1.8-.5,3.4-.5,4.8,0,1.5.5,2.7,1.4,3.8,2.8l1.5,1.9c.3.4.5.8.4,1.1,0,.3-.2.7-.7,1l-4.1,3.2c-.4.3-.8.5-1.1.4-.3,0-.6-.3-.9-.7h0Z"/>
  <path class="st0" d="M461.4,98.9l-9.2,9.6c-.4.4-.7.5-1.1,0l-1.6-1.6c-.4-.4-.4-.7,0-1.1l24.2-25.3c.4-.4.7-.4,1.1,0l7.7,7.4c6.5,6.2,6,10.7,3,13.8l-4.7,4.9c-3,3.1-7.5,3.8-13.9-2.4l-5.5-5.3h0ZM474.7,85l-11,11.5,5.5,5.3c4.2,4,7.1,3.9,9.3,1.7l3.8-4c2.2-2.3,2.1-5.2-2.1-9.2l-5.5-5.3h0Z"/>
  <path class="st0" d="M116.8,103.1l3.1,3.2c.3.4.5.7.6,1,0,.3-.2.6-.6,1l-3.8,3.7c-.7.7-1.4.7-2.1,0l-3.1-3.2c-.7-.7-.7-1.4,0-2.1l3.8-3.7c.3-.3.6-.4.9-.5.3,0,.7,0,1.2.6Z"/>
  <path class="st0" d="M470.4,127.7c-.4.4-.8.4-1.1,0l-1.4-1.6c-.4-.4-.3-.8,0-1.1l27.3-23.6c.4-.4.8-.4,1.1,0l1.4,1.6c.4.4.3.7-.1,1.1l-27.3,23.6h.1Z"/>
  <path class="st0" d="M489.8,120.9c3.2-2.5,6.9-2.3,11.4,3.4,4.6,5.8,3.8,9.3.6,11.9l-15.2,12c-.4.3-.8.3-1.1,0l-1.2-1.5c-.4-.5-.3-.8.1-1.1l1.5-1.3c-1.9-.5-5.3-1.6-8-5-3.1-3.9-2.4-7.6.4-9.8l2.1-1.7c2.7-2.2,6.4-2.1,9.3,1.6l5.7,7.3,3.8-3c1.9-1.5,2.5-3.6-.5-7.4s-5.1-3.8-7-2.3l-.5.4c-.5.4-.8.4-1.2,0l-1.2-1.5c-.3-.4-.3-.8.2-1.1l.7-.6v-.2ZM488.1,142.2l4.9-3.9-5.3-6.7c-1.8-2.3-3.7-2.3-5.6-.8l-1.4,1.1c-1.9,1.5-2,3.4,0,6,2.4,3,5.8,4,7.3,4.4h.1Z"/>
  <path class="st0" d="M101.1,128.5l-3.5,4.1c-.6.7-1.3.8-2.1.1l-25.4-22c-.8-.7-.8-1.4-.2-2.1l6.6-7.6c1.7-2,3.4-3.4,5.1-4.3s3.3-1.2,4.9-1.1,3,.8,4.4,2l4.2,3.7c.8.7,1.5,1.6,2,2.6s.7,2,.8,3,0,1.9-.3,2.7l13.2,5.5c.4.2.7.5.7.8s0,.8-.5,1.2l-3.7,4.3c-.5.6-1.2.6-2.2.2l-11.7-5.1-1.7,2,9.2,8c.8.7.8,1.3.2,2ZM81.6,105.4l-2.2,2.5,7.1,6.1,2.2-2.5c.7-.8,1.2-1.7,1.3-2.6s-.2-1.6-.8-2.2l-2.9-2.5c-.7-.6-1.5-.8-2.3-.6-.8.2-1.6.8-2.4,1.7h0Z"/>
  <path class="st0" d="M513,153.7c1.8-1.1,1.8-3.4-.4-6.8-2.1-3.4-4.2-4.3-6-3.1l-1.2.8c-1.4.9-1.3,2.7-1,3.9l2.2,8.4c.7,2.7.3,5.3-1.8,6.7l-2.6,1.7c-2.7,1.7-6.7.8-10.4-5-3.7-5.9-2.8-9.8-.1-11.5l1.2-.8c.4-.3.8-.2,1,.2l1.1,1.7c.3.5.1.7-.3,1l-1.1.7c-1.8,1.2-1.7,3.6.5,7.1s4.5,4.7,6.3,3.5l1.7-1.1c1.4-.9,1.3-2.4.8-4.3l-2.2-8.5c-.5-1.9-.1-4.9,2.2-6.3l1.8-1.1c2.7-1.7,6.5-1.3,10.2,4.5,3.7,5.8,2.6,9.5,0,11.2l-1.3.8c-.4.3-.7.2-1-.3l-1.1-1.7c-.3-.4-.2-.7.2-1l1.3-.8h0Z"/>
  <path class="st0" d="M87.1,147.2l-6.2,8.7c-.5.7-1.2.8-2,.2l-27.4-19.6c-.8-.6-.9-1.3-.4-2.1l6.1-8.6c.9-1.3,2-2.4,3.1-3.5,1.1-1,2.3-1.8,3.6-2.3,1.2-.5,2.5-.6,3.8-.5s2.5.6,3.7,1.5l15.7,11.2c.9.7,1.7,1.5,2.3,2.4.6,1,.9,2.1,1,3.3,0,1.3,0,2.7-.6,4.2-.5,1.5-1.4,3.2-2.6,4.9v.2ZM62.8,129.9l-2.2,3,18.8,13.4,2.2-3c.7-.9,1-1.8,1-2.7s-.4-1.6-1.1-2.1l-14-10c-.8-.6-1.6-.7-2.4-.4s-1.6.9-2.2,1.9h0Z"/>
  <path class="st0" d="M527.9,169.4c.2.5.2.8-.3,1.1l-1.3.7c-.5.2-.8.1-1.1-.4l-2.7-5.4-14.4,7.3c-2.3,1.1-3,3.2-.9,7.5l.4.8c.2.5.2.8-.4,1.1l-1.4.7c-.5.3-.8.1-1.1-.4l-.6-1.2c-3.3-6.6-2-9.7,1.9-11.7l14.7-7.5-1.5-2.9c-.2-.5,0-.8.4-1l1.2-.6c.5-.2.8-.1,1.1.3l1.4,2.4.2.4,5.1-2.6c.5-.2.8-.1,1.1.4l1,2c.2.5,0,.8-.4,1l-5.1,2.6,2.7,5.4h0Z"/>
  <path class="st0" d="M68.5,165.9l4,2c.4.2.7.5.9.8,0,.3,0,.7-.2,1.1l-2.4,4.7c-.4.9-1.1,1.1-2,.6l-4-2c-.9-.5-1.1-1.1-.7-2l2.4-4.7c.2-.4.4-.6.7-.8.3-.2.7,0,1.3.2h0Z"/>
  <path class="st0" d="M508.4,189c-.5.2-.8.1-1-.4l-.9-2c-.2-.5,0-.8.4-1.1l22.8-10.4c.5-.2.8-.1,1.1.4l.9,2c.2.5,0,.8-.4,1l-22.8,10.4h-.1ZM536.6,176.1c-.5.2-.8.1-1-.4l-.9-2c-.2-.5,0-.8.4-1.1l4.6-2.1c.5-.2.8-.1,1.1.4l.9,2c.2.5,0,.8-.4,1l-4.6,2.1h0Z"/>
  <path class="st0" d="M517.9,213.9c-.3.4-.7.4-.9,0l-.8-2.3c-.2-.6,0-1,.3-1.5l8.7-13.9-.6-1.7-12,4.1c-.5.2-.8,0-1-.5l-.7-2.1c-.2-.5,0-.8.5-1l34.1-11.7c.5-.2.8,0,1,.5l.7,2.1c.2.5,0,.8-.5,1l-19.4,6.6.6,1.7,11.9,5.6c.5.2,1,.5,1.2,1l.8,2.3c.2.6,0,.8-.6.6l-13.5-6.2-9.8,15.4h0Z"/>
  <path class="st0" d="M53.8,181.7l-1.4,3,10.2,4.6c.2,0,.5.3.8.5.3.3.3.7,0,1.4l-2.2,4.9c-.4.9-1.1,1.1-2,.7l-30.7-13.8c-.9-.4-1.2-1.1-.8-1.9l4.1-9.2c1.1-2.4,2.3-4.2,3.7-5.6,1.4-1.3,2.8-2.1,4.4-2.5,1.5-.3,3.1-.1,4.8.6l6,2.7c1.6.7,2.8,1.8,3.6,3.2s1.1,3,1.1,4.9-.6,4-1.7,6.4h.1ZM38.1,174.6l-1.4,3,9.5,4.3,1.4-3c.5-1,.6-2,.5-2.8s-.6-1.5-1.4-1.8l-4.5-2c-.8-.4-1.6-.3-2.3.1-.7.5-1.3,1.2-1.8,2.3h0Z"/>
  <path class="st0" d="M539.7,236.8c0,.5,0,.8-.6,1l-1.5.4c-.6.1-.8,0-1-.6l-3.2-14.1c0-.5,0-.8.6-1l1.5-.4c.5-.1.8,0,.9.6l3.2,14.1h0Z"/>
  <path class="st0" d="M44.1,222l-19.4-5.5c-1.7-.5-3.1-1.4-4.1-2.6-1-1.2-1.6-2.8-1.8-4.7-.2-1.9,0-4.1.7-6.6.4-1.5,1-3,1.7-4.3.7-1.4,1.6-2.5,2.6-3.3,1-.9,2.1-1.4,3.4-1.7,1.2-.3,2.6-.3,3.9.1l19.4,5.5c1.1.3,2.1.8,3,1.5s1.6,1.6,2.1,2.8c.5,1.1.8,2.5.8,4.2s-.3,3.5-.8,5.5c-.7,2.5-1.7,4.5-2.8,6-1.2,1.5-2.5,2.5-4,3.1s-3.1.6-4.8,0h0ZM47.6,206.5l-17.6-5c-.9-.3-1.7,0-2.3.5-.6.6-1.1,1.4-1.4,2.5s-.3,2,0,2.8.8,1.3,1.7,1.6l17.6,5c.9.3,1.7.1,2.3-.4s1.1-1.4,1.4-2.4c.3-1.1.3-2,0-2.8s-.8-1.4-1.7-1.6v-.2Z"/>
  <path class="st0" d="M540.7,259.8l-14.1,1.1c-.5,0-.8,0-.9-.7l-.2-2.3c0-.5.2-.8.7-.8l34.9-2.7c.5,0,.8.2.9.6l.8,10.6c.7,8.9-2.7,11.9-7,12.3l-6,.5c-3.3.3-6.4-1.2-7.8-6.1l-14,8.1c-.5.3-.8,0-.9-.7l-.2-2.3c0-.6.3-.7.7-1l13.6-7.7v-1.3c0,0-.7-7.6-.7-7.6h.2ZM559,258.4l-15.2,1.2.6,7.6c.4,5.8,2.6,7.7,5.8,7.4l4.8-.4c3.1-.2,5-2.5,4.6-8.2l-.6-7.6h0Z"/>
  <path class="st0" d="M539.8,303.3c-.5,0-.7-.2-.7-.8l.4-15.2-6-.2c-2.5,0-4.2,1.2-4.3,6.1,0,5,1.5,6.3,4,6.4h.9c.5,0,.7.3.7.8v1.9c0,.5-.3.8-.8.8h-1.1c-4.1-.1-6.9-2.6-6.7-10.1.2-7.4,3.1-9.7,7.2-9.6l13.6.4c4.1.1,6.9,2.7,6.7,10.1s-3.1,9.7-7.2,9.6l-6.6-.2h-.1ZM542.3,287.3l-.3,12.5h4.3c2.4.2,4.2-1.3,4.3-6,0-4.8-1.6-6.3-4-6.4h-4.3Z"/>
  <path class="st0" d="M523.9,327c-.4.3-.8,0-.8-.5l.3-2.4c0-.6.4-.9,1-1.2l13.9-8.7.2-1.8-12.6-1.6c-.5,0-.8-.3-.7-.8l.3-2.2c0-.5.4-.7.9-.6l35.8,4.5c.5,0,.8.3.7.8l-.3,2.2c0,.5-.4.7-.9.6l-20.3-2.5-.2,1.8,8.2,10.3c.4.4.7.9.6,1.4l-.3,2.4c0,.6-.5.7-.8.3l-9.4-11.4-15.6,9.6v-.2Z"/>
  <path class="st0" d="M542.9,332c4,.9,6.2,4.2,4.5,11.4-1.7,7.2-5,9.3-9.1,8.4l-13.2-3.1c-4-.9-6.1-4.3-4.5-11.5,1.7-7.2,5-9.2,9.1-8.3l13.2,3.1ZM538.8,348.1c2.5.6,4.4-.7,5.5-5.4,1.1-4.6,0-6.6-2.6-7.2l-12.7-2.9c-2.5-.6-4.4.7-5.5,5.3-1.1,4.7,0,6.7,2.6,7.2l12.7,2.9h0Z"/>
  <path class="st0" d="M540.3,362.8l-2-.6c.7,1.8,1.6,5.4.2,9.8-1.6,4.8-5,6.2-8.7,4.9l-18.6-6.3c-.5-.2-.7-.5-.5-1l.7-2c.2-.5.5-.7,1-.5l17.8,6c2.3.8,4.3,0,5.4-3.2,1.3-3.8.3-7.2-.3-8.7l-18.8-6.4c-.5-.2-.7-.5-.5-1l.7-2c.2-.6.5-.7,1-.5l23.7,8c.5.2.7.5.5,1l-.6,1.8c-.2.6-.5.6-1,.5v.2Z"/>
  <path class="st0" d="M522.2,396.2c1.9.9,3.8-.4,5.5-4.1,1.6-3.6,1.3-5.9-.6-6.7l-1.3-.6c-1.5-.7-3,.4-3.8,1.3l-5.9,6.4c-1.9,2.1-4.3,3.1-6.6,2.1l-2.8-1.3c-2.9-1.3-4.3-5.2-1.5-11.4,2.9-6.3,6.6-7.7,9.6-6.4l1.3.6c.4.2.6.5.4,1l-.8,1.8c-.2.5-.5.5-1,.3l-1.2-.5c-2-.9-4,.6-5.7,4.3-1.7,3.7-1.5,6.3.5,7.2l1.8.8c1.5.7,2.8-.2,4.1-1.6l5.9-6.4c1.4-1.4,4-2.7,6.5-1.6l1.9.9c2.9,1.3,4.6,4.7,1.7,11-2.8,6.2-6.5,7.3-9.5,6l-1.4-.6c-.4-.2-.5-.5-.3-1l.8-1.8c.2-.4.5-.5.9-.3l1.4.6h0Z"/>
  <path class="st0" d="M518.3,416.2c-.2.5-.6.6-1,.4l-1.3-.7c-.5-.2-.6-.6-.4-1.1l2.7-5.4-14.4-7.3c-2.3-1.2-4.4-.6-6.5,3.7l-.4.8c-.2.5-.6.6-1.1.4l-1.4-.7c-.5-.3-.6-.6-.4-1.1l.6-1.2c3.4-6.6,6.6-7.3,10.5-5.3l14.7,7.5,1.5-2.9c.2-.5.6-.5,1.1-.3l1.2.6c.5.2.6.5.4,1l-1.1,2.6-.2.4,5.1,2.6c.5.2.6.6.4,1.1l-1,2c-.2.5-.6.5-1.1.3l-5.1-2.6-2.7,5.4v-.2Z"/>
  <path class="st0" d="M506.9,433.8l-1.5-1c-.5-.3-.5-.7-.2-1.2,2.1-3.5,1.9-7.7,1.7-9.3l-16.2-10.4c-.5-.3-.6-.6-.3-1.1l1.2-1.8c.3-.5.7-.5,1.1-.2l21,13.5c.5.3.6.6.2,1.1l-1.1,1.6c-.3.5-.6.5-1.1.2l-2.3-1.3c.4,2,.7,6.1-1.5,9.5-.3.5-.7.6-1.1.3h0Z"/>
  <path class="st0" d="M475.7,436.3c0-1.9.1-5.4,2.9-8.9,3.1-4,6.8-4.2,9.8-1.9l15.5,12.1c.4.3.5.7.2,1.1l-1.4,1.7c-.3.4-.7.4-1.1.1l-14.9-11.5c-2-1.5-4.1-1.5-6.2,1.3-2.4,3.1-2.5,6.4-2.4,7.9l15.7,12.2c.4.3.5.7.2,1.1l-1.4,1.7c-.3.4-.7.4-1.1.1l-19.7-15.3c-.5-.4-.5-.7-.2-1.1l1.2-1.6c.4-.5.6-.5,1.1-.1l1.6,1.1h.2ZM499.8,452.6c-.4-.3-.5-.6-.1-1.1l.8-1.1c.3-.4.6-.5,1.1-.1l4.1,3.2c.4.3.5.7.2,1.1l-.8,1.1c-.3.4-.7.4-1.1.1l-4.1-3.2h-.1ZM503.4,448.1c-.4-.3-.5-.6-.1-1.1l.8-1.1c.3-.4.7-.5,1.1-.2l4.1,3.2c.4.3.5.7.1,1.1l-.8,1.1c-.3.4-.7.4-1.1.1l-4.1-3.2h0Z"/>
  <path class="st0" d="M454.9,456c-.5,0-.7-.4-.3-.8l1.7-1.8c.4-.4.9-.4,1.5-.4l16.3,1.3,1.3-1.3-9.2-8.8c-.4-.4-.4-.7,0-1.1l1.5-1.6c.4-.4.7-.4,1.1,0l26.1,24.9c.4.4.4.7,0,1.1l-1.5,1.6c-.4.4-.7.4-1.1,0l-14.8-14.1-1.2,1.3.5,13.1c0,.6,0,1.1-.3,1.5l-1.7,1.8c-.4.4-.8.3-.8-.3l-.7-14.8-18.2-1.6h-.2Z"/>
  <path class="st0" d="M463.6,483.6c-.4.4-.7.4-1.1,0l-1-1.1c-.4-.4-.4-.8,0-1.1l4.4-4.2-11.1-11.7c-1.8-1.8-3.9-2-7.4,1.3l-.7.6c-.4.4-.7.4-1.1,0l-1.1-1.1c-.4-.4-.4-.8,0-1.1l1-1c5.3-5.1,8.7-4.7,11.7-1.6l11.4,11.9,2.3-2.2c.4-.4.7-.3,1.1,0l.9.9c.4.4.4.7,0,1.1l-1.9,2.1-.3.3,3.9,4.1c.4.4.4.8,0,1.1l-1.6,1.5c-.4.4-.7.3-1.1,0l-3.9-4.1-4.4,4.2h0Z"/>
  <path class="st0" d="M439.4,471c-.4-.4-.4-.8,0-1.1l1.6-1.4c.4-.4.8-.3,1.1,0l16.3,18.9c.4.4.4.8,0,1.1l-1.6,1.4c-.4.4-.7.3-1.1-.1l-16.3-18.9h0ZM459.7,494.5c-.4-.4-.4-.8,0-1.1l1.6-1.4c.4-.4.8-.3,1.1,0l3.3,3.8c.4.4.4.8,0,1.1l-1.6,1.4c-.4.4-.7.3-1.1-.1l-3.3-3.8h0Z"/>
  <path class="st0" d="M448.4,495.7l2.9,3.6c2.5,3.2,2.1,7.1-3.7,11.7l-.3.2c-.4.3-.8.3-1.1,0l-1-1.3c-.3-.4-.3-.8.1-1.1l.3-.2c3.8-3,4-5.2,2.4-7.1l-2.6-3.3-4.6,3.6c-.4.3-.8.3-1.1,0l-.9-1.2c-.3-.4-.3-.8.1-1.1l4.6-3.6-14-17.8c-.3-.4-.3-.8.1-1.1l1.7-1.3c.4-.3.8-.3,1.1.1l14,17.8,2.6-2.1c.4-.3.8-.3,1.1.2l.8,1c.3.4.3.7,0,1.1l-2.2,1.9-.3.3v-.3Z"/>
  <path class="st0" d="M407.2,491.9c.4-.2.7-.1,1.1.2l19.9,17.4c.4.3.3.8-.2,1.1l-2,1.2c-.5.3-.8,0-1.2-.2l-14.2-12.4c-.8-.8-2.1-2.2-2.3-2.5,0,.3.7,1.9.9,3.3l3.6,18.6c.1.5,0,.9-.4,1.2l-1.8,1c-.5.3-.9.2-1-.3l-5-26c-.1-.5,0-.8.4-1.1l2.1-1.2v-.3Z"/>
  <path class="st0" d="M383,518.9c-.2-.4-.1-.8.4-1l13.9-6.3-2.5-5.5c-1-2.3-2.9-3.2-7.4-1.2s-5,4.1-4,6.4l.4.8c.2.5.1.8-.4,1l-1.8.8c-.5.2-.8,0-1-.4l-.5-1c-1.7-3.8-.7-7.3,6.1-10.4,6.7-3,10.1-1.5,11.8,2.3l5.6,12.4c1.7,3.8.6,7.4-6.2,10.4-6.7,3-10,1.5-11.8-2.3l-2.7-6h.1ZM398.5,514.3l-11.4,5.2,1.8,3.9c1,2.2,3.1,3.2,7.4,1.2,4.4-2,5-4.1,4-6.4l-1.8-3.9Z"/>
  <path class="st0" d="M362.3,512.4c.5,0,.7,0,.9.6l9.5,33.7c.1.5,0,.8-.5,1l-17.7,5c-.5,0-.8,0-1-.6l-.5-1.6c-.2-.6,0-.9.6-1l14.8-4.2-3.4-12.1-13.8,3.9c-.6.2-.8,0-1-.6l-.4-1.5c-.2-.6,0-.8.6-1l13.8-3.9-3.9-13.8-15.4,4.4c-.5,0-.8,0-1-.5l-.5-1.7c-.2-.6,0-.9.6-1l18.4-5.2h-.1Z"/>
  <path class="st0" d="M330.2,541.6c.4,2.1,2.5,2.9,6.5,2.2,3.9-.7,5.6-2.3,5.2-4.3l-.2-1.4c-.3-1.6-2-2.3-3.2-2.4l-8.6-1.2c-2.8-.4-5-1.7-5.5-4.2l-.5-3c-.6-3.2,1.8-6.5,8.6-7.7,6.8-1.2,10.1,1.1,10.7,4.3l.3,1.4c0,.5,0,.8-.6.9l-2,.4c-.5,0-.7,0-.8-.6l-.2-1.3c-.4-2.1-2.7-3-6.8-2.2-4,.7-6,2.4-5.7,4.5l.4,2c.3,1.6,1.8,2.1,3.7,2.4l8.7,1.2c2,.3,4.5,1.8,5,4.4l.4,2.1c.6,3.2-1.3,6.5-8.1,7.7-6.7,1.2-9.7-1.2-10.3-4.4l-.3-1.5c0-.5,0-.7.6-.8l2-.4c.5,0,.7,0,.8.6l.3,1.5-.4-.2Z"/>
  <path class="st0" d="M311.4,549.9c-.5,0-.8,0-.9-.6l-.2-1.5c0-.5.2-.8.7-.9l6-.7-2-16c-.3-2.5-2-3.9-6.7-3.3h-.9c-.5.2-.8,0-.9-.6l-.2-1.6c0-.6.2-.8.7-.9l1.4-.2c7.3-.9,9.8,1.4,10.3,5.7l2,16.4,3.2-.4c.5,0,.8.2.8.7l.2,1.3c0,.5-.1.8-.6.9l-2.8.5h-.4l.7,5.7c0,.5-.2.8-.7.9l-2.2.3c-.5,0-.8-.2-.8-.7l-.7-5.7-6,.7h0Z"/>
  <path class="st0" d="M233.5,520c-.3-.4,0-.8.5-.7l2.4.4c.6,0,.8.5,1.1,1l7.9,14.4,1.8.3,2.3-12.5c0-.5.4-.8.9-.7l2.2.4c.5,0,.7.4.6.9l-6.4,35.5c0,.5-.4.8-.9.7l-2.2-.4c-.5,0-.7-.4-.6-.9l3.6-20.2-1.8-.3-10.7,7.6c-.4.4-.9.7-1.4.6l-2.4-.4c-.6,0-.7-.5-.2-.9l11.9-8.7-8.7-16.1h0Z"/>
  <path class="st0" d="M258.2,555c0-.5.3-.8.8-.7l2.2.2c.6,0,.8.3.7.9l-.4,5c0,.5-.3.8-.9.7l-2.2-.2c-.5,0-.7-.3-.7-.9l.4-5h.1ZM260.6,524.1c0-.5.3-.8.8-.7l2.2.2c.6,0,.8.3.7.9l-1.9,24.9c0,.5-.3.8-.9.7l-2.2-.2c-.5,0-.7-.3-.7-.9l1.9-24.9h.1Z"/>
  <path class="st0" d="M268.1,550.9c-.5,0-.8-.2-.8-.8v-1.5c0-.5.3-.8.9-.8l6,.2.4-16.1c0-2.5-1.3-4.2-6.1-4.3h-.9c-.5,0-.8-.3-.8-.9v-1.6c0-.6.3-.8.9-.8h1.4c7.4.2,9.5,2.9,9.3,7.3l-.5,16.5h3.2c.5,0,.7.4.7.9v1.3c0,.5-.3.7-.8.8h-3.2l-.2,5.7c0,.5-.3.8-.8.8h-2.2c-.5,0-.7-.4-.7-.9l.2-5.7-6-.2h0Z"/>
  <path class="st0" d="M284.7,538.6c0-.5.2-.8.7-.8l15.2-.4-.2-6c0-2.5-1.4-4.1-6.4-4s-6.2,1.8-6.1,4.3v.9c0,.5-.2.8-.7.8h-1.9c-.5,0-.8,0-.8-.7v-1.1c-.1-4.1,2.2-7,9.6-7.2s9.9,2.5,10,6.7l.4,13.6c.1,4.1-2.3,7-9.7,7.2-7.4.2-9.8-2.5-9.9-6.7l-.2-6.6ZM300.8,540.2l-12.5.3v4.3c.2,2.4,1.7,4.1,6.5,4s6.2-1.9,6.1-4.3v-4.3h-.1Z"/>
  <path class="st1" d="M10.8,403.6c5.2,1.3,13.1,3,16,7.6l.7,1.1v1.3c.4,5.7,2.1,11.2,6.5,15.1l2.1,1.9-.5,2.8c-1,5.8,3.6,7.3,8.3,9l3.1,1.1.2,3.3c.6,7.5,1.5,20.7,8.1,25.8.4.3.9.6,1.3.9.6.4,2.9,1.9,3.6,2,.7,0,3.8-1,4.5-1.2,12-3.4,20.1-5.7,30.9-12.9l1.1-.7h1.3c51.1-4.8,84.8,50.1,104.4,89.8l.4.8c20.4-30.9,27.6-66.6,14.6-102-7.5-20.7-21.1-38.7-37.9-52.7-17.8-14.9-39.3-25.3-61.9-30.5l-1-.2-.9-.6c-.8-.6-1.7-1.3-2.5-1.9l-14.6-4.5c-31.7-9.7-63.6-27.9-80.9-57.1,0-.1-.1-.2-.2-.3.2.5.4,1.1.6,1.6l.8,2-.9,2c-5.1,11.1-.4,26.9,3.8,37.5,4.3,11,8.8,13.3,4.3,26.2-.9,2.7-2.1,5.3-3.3,7.8-3.7,7.4-10.4,17.1-12,25v.2M197.9,552.6c-22.2-45.1-54.3-91.2-99.4-87.1-13.1,8.7-21.9,10.6-32.3,13.5-6.4,1.8-6.2,2.5-12.3-1.4-6.5-4.1-10.2-10.6-11.7-30.6-7.3-2.6-13.1-6-11.6-14.6-4.8-4.3-7.7-10.5-8.1-18.6-1.4-2.2-4.9-3.3-13.6-5.6-4.2-1.1-4.1-.8-3.1-6,2.1-10.6,11.2-21.3,15.5-33.5,3.8-10.9-.2-12.3-4.2-22.7-6.6-16.8-8.4-31-3.7-41.5-10.5-26.5-13.4-53.3-3-80,3.1-8.1,5.2-5.5,3.1,3.1-16.3,66.2,28.4,108.3,86.6,126.2-12-12-21.2-26.7-21.2-50.3s2.7-8.2,4,1.6c2.9,23.2,16.2,41.2,35.9,55.9,85.6,19.6,145.3,109.4,86.9,194.9-5.4,2.4-9.5-.4-7.8-3.3h0Z"/>
  <path class="st1" d="M38.1,352.3s-2.9,8,2.4,7.5c5.2-.6,16.3-.2,24.3-3.7,0,0-11,7.3-13.9,11.7,0,0-2.4-.4-4.8-.8-2.4-.4-2.4-.8-5.1.3-2.7,1.1-3.6-.9-4.9-1.5-1.3-.6-8.9,3.3-6.6,1.6,2.2-1.7,8.4-3.5,7.8-4.7-1.7-3.5-1.7-8.2.9-10.4"/>
  <path class="st1" d="M25.3,415c-.4,13.1,14.3,13.3,23.8,10.9,27.6-7-15,6.3-13.8,7,0,0,6.1,17.9-1,7.5-2.1-3.1-1.1-6.4-2.4-9.8-3-8-6.6-15.6-6.6-15.6"/>
</svg>